<?xml version="1.0" encoding="UTF-8" standalone="no"?>
<!-- Created with Inkscape (http://www.inkscape.org/) -->

<svg
   version="1.1"
   id="svg2"
   width="373.35901"
   height="132.916"
   viewBox="0 0 373.35901 132.916"
   sodipodi:docname="logo_sear.svg"
   inkscape:version="1.2 (dc2aedaf03, 2022-05-15)"
   xmlns:inkscape="http://www.inkscape.org/namespaces/inkscape"
   xmlns:sodipodi="http://sodipodi.sourceforge.net/DTD/sodipodi-0.dtd"
   xmlns="http://www.w3.org/2000/svg"
   xmlns:svg="http://www.w3.org/2000/svg">
  <defs
     id="defs6" />
  <sodipodi:namedview
     id="namedview4"
     pagecolor="#ffffff"
     bordercolor="#000000"
     borderopacity="0.25"
     inkscape:showpageshadow="2"
     inkscape:pageopacity="0.0"
     inkscape:pagecheckerboard="0"
     inkscape:deskcolor="#d1d1d1"
     showgrid="false"
     inkscape:zoom="2.5927249"
     inkscape:cx="158.52048"
     inkscape:cy="32.012652"
     inkscape:window-width="1920"
     inkscape:window-height="1043"
     inkscape:window-x="1920"
     inkscape:window-y="0"
     inkscape:window-maximized="1"
     inkscape:current-layer="g12">
    <inkscape:page
       x="0"
       y="0"
       id="page8"
       width="373.35901"
       height="132.916"
       inkscape:export-filename="logo_sear.png"
       inkscape:export-xdpi="96"
       inkscape:export-ydpi="96" />
  </sodipodi:namedview>
  <g
     id="g10"
     inkscape:groupmode="layer"
     inkscape:label="Page 1"
     transform="matrix(1.3333333,0,0,-1.3333333,-0.01615798,131.55759)">
    <g
       id="g12"
       transform="scale(0.1)">
      <g
         id="g14"
         transform="scale(10)" />
      <path
         d="m 13.536237,436.86009 c 900.460843,-559.101 1812.569863,-595.711 2775.269863,-7.391"
         style="fill:none;stroke:#000000;stroke-width:15.371;stroke-linecap:round;stroke-linejoin:miter;stroke-miterlimit:4;stroke-dasharray:none;stroke-opacity:1"
         id="path20" />
      <path
         d="M 13.254987,437.25109 C 894.35608,1131.7791 1814.1961,1163.8891 2789.0761,431.27009"
         style="fill:none;stroke:#000000;stroke-width:15.371;stroke-linecap:round;stroke-linejoin:miter;stroke-miterlimit:4;stroke-dasharray:none;stroke-opacity:1"
         id="path22" />
      <path
         d="m 1888.1461,486.38709 c 0,-260.777 -224.65,-472.187104 -501.76,-472.187104 -277.11,0 -501.76002,211.410104 -501.76002,472.187104 0,260.821 224.65002,472.223 501.76002,472.223 277.11,0 501.76,-211.402 501.76,-472.223 z"
         style="fill:none;stroke:#000000;stroke-width:16.8381;stroke-linecap:butt;stroke-linejoin:miter;stroke-miterlimit:4;stroke-dasharray:none;stroke-opacity:1"
         id="path24" />
      <path
         d="m 1574.3561,768.54009 c 0,-98.211 -84.57,-177.821 -188.91,-177.821 -104.34,0 -188.91,79.61 -188.91,177.821 0,98.16 84.57,177.769 188.91,177.769 104.34,0 188.91,-79.609 188.91,-177.769 z"
         style="fill:none;stroke:#000000;stroke-width:11.7799;stroke-linecap:butt;stroke-linejoin:miter;stroke-miterlimit:4;stroke-dasharray:none;stroke-opacity:1"
         id="path26" />
      <path
         d="M 1164.8561,736.70009 969.23508,577.91109"
         style="fill:none;stroke:#000000;stroke-width:9.33143;stroke-linecap:butt;stroke-linejoin:miter;stroke-miterlimit:4;stroke-dasharray:none;stroke-opacity:1"
         id="path28" />
      <path
         d="m 1230.2161,614.16109 -95.12,-128.711"
         style="fill:none;stroke:#000000;stroke-width:9.92993;stroke-linecap:butt;stroke-linejoin:miter;stroke-miterlimit:4;stroke-dasharray:none;stroke-opacity:1"
         id="path30" />
      <path
         d="m 1387.5961,549.23909 v -91.91"
         style="fill:none;stroke:#000000;stroke-width:10.5556;stroke-linecap:butt;stroke-linejoin:miter;stroke-miterlimit:4;stroke-dasharray:none;stroke-opacity:1"
         id="path32" />
      <path
         d="m 1532.9861,602.09109 94.61,-117.223"
         style="fill:none;stroke:#000000;stroke-width:9.92993;stroke-linecap:butt;stroke-linejoin:miter;stroke-miterlimit:4;stroke-dasharray:none;stroke-opacity:1"
         id="path34" />
      <path
         d="m 1615.9961,740.13709 184.1,-160.82"
         style="fill:none;stroke:#000000;stroke-width:9.92993;stroke-linecap:butt;stroke-linejoin:miter;stroke-miterlimit:4;stroke-dasharray:none;stroke-opacity:1"
         id="path36" />
      <path
         d="m 887.94608,437.04809 c 145.00002,104.261 261.05002,-5.821 261.05002,-5.821 128.01,-132.297 238.6,0.352 238.6,0.352 136.4,114.461 270.31,-0.391 270.31,-0.391 130.24,-131.789 222.77,0.629 222.77,0.629"
         style="fill:none;stroke:#000000;stroke-width:7.19804;stroke-linecap:butt;stroke-linejoin:miter;stroke-miterlimit:4;stroke-dasharray:none;stroke-opacity:1"
         id="path38" />
    </g>
  </g>
</svg>
